<svg xmlns="http://www.w3.org/2000/svg" width="256" height="256"><path fill="#FDFDFD" d="M180 56v2l1.7.3c20.3 6.2 37.5 32.8 47.2 50.1a99 99 0 0 1 8.8 74.4 66 66 0 0 1-33.9 39c-23.2 11.3-49.8 12.8-75.2 12.6h-3C94.8 234.2 61 232.7 37 211l-2-1.8A68.8 68.8 0 0 1 16 175l-.7-2.7a79.1 79.1 0 0 1 6.8-53.5c1-1.8 1.7-3.7 2.5-5.5 1-2.5 2.2-5 3.4-7.3h2l.3-1.7C33 95.7 41 88.3 47 82l1.8-2C84.8 42.6 133 28 180 56Zm-38 50c-4.1 5.6-5 11.2-4 18 2 8.5 7.4 14.8 12.8 21.5 4.4 5.5 8.1 11.4 11.6 17.6 4.7 8.1 11.2 16.1 20.6 18.9 5.6 1 11-.1 16-3a41.9 41.9 0 0 0 16-20c1.2-11.5-1-19.6-8.1-28.7-2.2-2.5-4.5-5-6.9-7.3l-2.1-2.1-4-4c-1.9-1.9-3.6-3.9-5.3-5.9-7-8-14.2-15-25-16.5A34 34 0 0 0 142 106Zm-84 16.5c-2.2 2.8-4.7 5.4-7.2 8-7.1 7.9-10.7 13.4-10.2 24.3 1.2 9.7 5.9 16.6 13.3 22.8 6.8 4.5 14.2 4.5 22.1 3.4 9.2-3 14.8-12.8 19-21v-2h2l.8-1.6c2.4-4.5 5-8.5 8-12.5 6.4-8.6 12.5-18.6 11.6-29.6-1-5.8-3.9-9.6-8.4-13.3-21.1-13.5-38.3 5-51 21.5Zm45 50.5c.4 5 2.3 6.8 6 10 5 4.8 5 4.8 11 7v4c-5 3-10.3 2.7-16 2a38.6 38.6 0 0 1-7-4c-2.7-1.3-4.2-.8-7 0-1 2.7-1.1 3.7 0 6.4 5.3 6.9 10.6 8 18.8 9.7 4.8 1.3 8.3 3.9 12.2 6.9 3.7 1.9 8 1.4 12 1 3.6-1.3 6.3-3.2 8.8-6.2 2.7-2.2 4-2 7.4-2.2 5.8-.4 9.5-1.8 13.8-5.6 3.3-3.7 3.3-3.7 3.8-8.3-.7-1.7-.7-1.7-1.8-2.7-4.3-.5-6.3.5-9.7 3a20.4 20.4 0 0 1-13 3.5 12 12 0 0 1-6.3-3.5l-1-3 1.6-.7c3-1.7 5.7-3.7 8.5-5.7l3.2-2.4c2.8-2.1 2.8-2.1 4.7-5.2 0-3.2-.6-4.6-2.9-7-15.6-10-33.4-10.4-47.1 3Z"/><path fill="#4E4E4E" d="M73.4 29.4c5.2 3.2 8.8 6.8 12.6 11.6 3.6-.6 7-1.6 10.5-2.8A97.8 97.8 0 0 1 179 47l1.8-2c9.3-9 19.8-16.3 33-16.8 9.4.5 16.6 4.2 23.2 10.8 8 10.3 10.2 19 9 32-1.8 9-6.2 16.4-11 24l-3 5 1.1 1.6a108 108 0 0 1 13.7 77.3A75 75 0 0 1 234 206l-1.9 2.4c-18.5 22.4-49.6 29.3-77.3 32.2-8.3.8-16.6.7-25 .7h-9c-17 .1-34.3-1-50.6-6l-2.6-.8c-22.2-6.9-40.6-18.8-51.8-39.7a91.9 91.9 0 0 1-4.2-68.6 90.8 90.8 0 0 1 14.2-28.4c1.4-1.7 1.4-1.7 1-3.8-1-2.4-2.2-4.4-3.6-6.6-6.5-10.6-10.4-21.8-7.5-34.3a45.3 45.3 0 0 1 22.1-25.7c12.4-5.9 24-4.6 35.6 2ZM40 89c-7 7.7-7 7.7-10 17h-2c-2.7 4.6-5 9-7 14l-1 2.4a87.5 87.5 0 0 0 1.3 68c9 18.3 24.9 30 43.7 36.6 20.6 7 42.1 7.3 63.6 7.4h3c18.3.1 37-1 54.8-6l2.7-.8a70.2 70.2 0 0 0 42.4-30.8A92.1 92.1 0 0 0 237 127a126 126 0 0 0-25-43l-2.5-3A116 116 0 0 0 183 58h-3v-2C125 27 79.5 45.8 40 89Z"/><path fill="#4D4D4D" d="M174.4 98.3c9.7 6.2 17.3 15.5 25 24a234 234 0 0 0 4 4.2c7 7.4 11.9 15.2 12.3 25.6a31.7 31.7 0 0 1-11.6 23.2 27 27 0 0 1-18.9 7c-7.9-1.2-14.5-7.3-19.2-13.3-2.3-3.6-4.5-7.2-6.6-11-3.7-6-7.7-11.5-12.3-16.9a35 35 0 0 1-9.4-24.4c.8-6.8 5-12.3 10.3-16.4 9-5.8 16.9-7.1 26.4-2ZM162 121c-4 4.6-5.3 9-5 15 1.3 6.6 4 11.3 9 15.8 4.7 1.9 9.1 2 14 1.2 4-2.8 5.5-5.5 7-10 .6-6 1.2-12.7-1.7-18.2a16.3 16.3 0 0 0-12.2-6.7c-4.6-.3-7.3.1-11.1 2.9ZM104.3 98.2c6 3.3 10.4 7.2 12.7 13.8 2.2 11-3.7 20.4-9.4 29.2l-7.4 10.6c-2.3 3-2.3 3-3.2 6.2h-2l-.8 2.2a41.4 41.4 0 0 1-16 19.9 33 33 0 0 1-20 0 34 34 0 0 1-16.5-19.3 28 28 0 0 1 1.5-20.8c3.8-5.4 8.3-10.1 12.8-14.8 2.6-2.7 4.9-5.5 7.1-8.4 9.9-12.5 24.2-26.7 41.1-18.6ZM72 122c-4.8 6.1-5.6 12.5-5 20a17 17 0 0 0 8 10c5.2 1.4 10 1.4 15-1 4.2-3.7 7.7-8.1 8.3-13.8V131c-.5-4.6-2.4-7.2-5.8-10.3-6.7-4.6-14.2-3.4-20.5 1.3Z"/><path fill="#050402" d="M150 170c1.9 1.6 1.9 1.6 3 3 0 3.3-.8 4.8-3 7.3-11.6 10.7-11.6 10.7-15 10.7 1.9 3.6 1.9 3.6 5 6 7.3 1.1 11.7-.5 17.7-4.7a9.7 9.7 0 0 1 7.3-1.3l2 2c-.3 4-2.6 7-5 10-4.3 3.3-7 4.1-12.4 4.3-5.6.3-8.1 2.2-12 6.1-3.3 3.2-7.5 3-11.8 3-4.1-.6-7-2.6-10.4-4.9A42.7 42.7 0 0 0 104 207a25.9 25.9 0 0 1-14-8.4c-1-2.6-1-2.6-.2-5.4L91 191c3.4.4 5.7 1.4 8.6 3a27 27 0 0 0 16.4 2c2.3-1 2.3-1 4-2v-4l-1.8-.8c-5.5-3-11.3-7.3-15.2-12.2-.3-2.4-.3-2.4 1-5 13.1-13 31.4-11.4 46-2Zm-23 29c-2 1.2-2 1.2-3.7 3l-1.9 1.7-1.4 1.3c.7 2 .7 2 2 4 4.8 1.2 7 1.4 11.5-.4l2.5-1.6a367 367 0 0 0-2.8-3.4l-1.6-2c-1.6-1.9-1.6-1.9-4.6-2.6Z"/><path fill="#060503" d="M181.4 120.7a17 17 0 0 1 6 11.7c0 7.3-.3 12.4-4.4 18.6-4.5 3-8.7 2.8-14 2-4.4-2-7.2-4.8-10-8.8-2.1-6.7-3-12.9 0-19.5 5-8.4 14.6-7.8 22.4-4Zm-17.3 3.1c-2.6 4-2.6 6.4-2.6 11 .3 2.6.3 2.6 3.5 4.2 2 0 2 0 4-1 1.6-2.1 1.6-2.1 2.8-4.8l1.3-2.6c1-3 .8-4.6-.1-7.6-3.9-1.2-5.4-1.4-8.9.8ZM90.2 119.3c3.9 2.4 6.3 4.3 7.8 8.7.7 7 .7 12.6-3.6 18.4-3.3 3.8-5.8 5.7-10.8 6.5-4.5.3-7.6-.6-11.6-2.9-4.6-4.8-5.4-8.8-5.3-15.3.6-6 2.7-10.4 7.4-14.2 5.5-2.8 10.2-3.6 16-1.3ZM74 125c-2.5 3.5-2.3 6.8-2 11l2 3c3.8-.2 5-1 7.6-3.7A35 35 0 0 0 87 126c-.7-2.8-.7-2.8-2-5-5.1-.5-7.4.4-11 4Z"/><path fill="#D2D2D2" d="M85 121c1.3 2 1.3 2 2 5a28 28 0 0 1-9 13c-2.7-.1-2.7-.1-5-1-1.6-3.1-1.3-5.6-1-9 3.4-6.2 6-8.3 13-8ZM170.3 122.2l2.7.8c.7 2.2.7 2.2 1 5-1.3 2.5-1.3 2.5-3 5l-1 2.8c-1 2.2-1 2.2-3 3.1-2 .1-2 .1-5-1.9-.7-3.4-.6-6.6 0-10 2.6-3.9 3.6-5 8.3-4.8Z"/><path fill="#E39394" d="M127 199c4.5 2.3 6 4.1 9 8a15 15 0 0 1-10.3 3l-3.7-1-2-4 7-6Z"/></svg>